<svg width="1363" height="301" viewBox="0 0 1363 301" fill="none" xmlns="http://www.w3.org/2000/svg">
<rect width="1363" height="301" rx="15" fill="#F0F0F0"/>
<path d="M0 15C0 6.71573 6.71573 0 15 0H37V301H15C6.71573 301 0 294.284 0 286V15Z" fill="#673AB7"/>
<path d="M127.637 104.898V144H118.238L104.407 119.669V144H94.981V104.898H104.407L118.238 129.229V104.898H127.637ZM165.584 123.106V139.166C164.922 139.9 163.901 140.688 162.522 141.529C161.162 142.353 159.443 143.06 157.366 143.651C155.289 144.242 152.846 144.537 150.035 144.537C147.439 144.537 145.084 144.125 142.972 143.302C140.859 142.46 139.042 141.234 137.52 139.623C136.016 137.993 134.852 136.006 134.029 133.661C133.223 131.297 132.82 128.594 132.82 125.55V123.375C132.82 120.331 133.232 117.628 134.056 115.265C134.879 112.901 136.034 110.914 137.52 109.303C139.024 107.674 140.787 106.438 142.811 105.597C144.852 104.755 147.09 104.334 149.524 104.334C153.123 104.334 156.05 104.907 158.306 106.053C160.562 107.181 162.272 108.748 163.436 110.753C164.599 112.74 165.306 115.041 165.557 117.655H156.507C156.328 116.366 155.988 115.274 155.486 114.378C155.003 113.465 154.305 112.776 153.392 112.311C152.479 111.827 151.297 111.585 149.847 111.585C148.719 111.585 147.689 111.827 146.758 112.311C145.845 112.794 145.066 113.528 144.422 114.513C143.777 115.479 143.276 116.697 142.918 118.165C142.578 119.633 142.408 121.352 142.408 123.321V125.55C142.408 127.502 142.569 129.212 142.891 130.68C143.231 132.148 143.733 133.374 144.395 134.359C145.075 135.326 145.935 136.06 146.973 136.561C148.029 137.044 149.274 137.286 150.706 137.286C151.709 137.286 152.568 137.206 153.284 137.044C154 136.865 154.591 136.651 155.057 136.4C155.54 136.131 155.907 135.881 156.158 135.648V129.579H149.605V123.106H165.584ZM204.175 123.67V125.255C204.175 128.245 203.755 130.93 202.913 133.312C202.09 135.675 200.917 137.698 199.395 139.381C197.873 141.046 196.074 142.326 193.997 143.221C191.92 144.098 189.629 144.537 187.122 144.537C184.598 144.537 182.288 144.098 180.193 143.221C178.117 142.326 176.308 141.046 174.769 139.381C173.247 137.698 172.065 135.675 171.224 133.312C170.4 130.93 169.988 128.245 169.988 125.255V123.67C169.988 120.681 170.4 117.995 171.224 115.614C172.065 113.233 173.238 111.209 174.742 109.544C176.264 107.861 178.063 106.581 180.14 105.704C182.234 104.809 184.544 104.361 187.068 104.361C189.575 104.361 191.867 104.809 193.943 105.704C196.038 106.581 197.846 107.861 199.368 109.544C200.89 111.209 202.072 113.233 202.913 115.614C203.755 117.995 204.175 120.681 204.175 123.67ZM194.615 125.255V123.617C194.615 121.683 194.445 119.982 194.104 118.514C193.782 117.028 193.299 115.784 192.654 114.781C192.01 113.779 191.213 113.027 190.264 112.525C189.333 112.006 188.268 111.747 187.068 111.747C185.815 111.747 184.723 112.006 183.792 112.525C182.861 113.027 182.082 113.779 181.456 114.781C180.829 115.784 180.354 117.028 180.032 118.514C179.728 119.982 179.576 121.683 179.576 123.617V125.255C179.576 127.171 179.728 128.871 180.032 130.357C180.354 131.826 180.829 133.07 181.456 134.09C182.1 135.111 182.888 135.881 183.819 136.4C184.768 136.919 185.869 137.179 187.122 137.179C188.322 137.179 189.387 136.919 190.318 136.4C191.249 135.881 192.028 135.111 192.654 134.09C193.299 133.07 193.782 131.826 194.104 130.357C194.445 128.871 194.615 127.171 194.615 125.255ZM249.668 136.749V144H228.829V136.749H249.668ZM232.186 104.898V144H222.759V104.898H232.186ZM246.983 120.421V127.43H228.829V120.421H246.983ZM249.749 104.898V112.176H228.829V104.898H249.749ZM260.787 114.942L264.869 122.945L269.085 114.942H278.484L270.857 129.095L278.887 144H269.407L264.869 135.406L260.357 144H250.877L258.907 129.095L251.307 114.942H260.787ZM290.596 120.528V155.172H281.546V114.942H289.979L290.596 120.528ZM308.428 129.122V129.686C308.428 131.799 308.187 133.759 307.703 135.567C307.22 137.376 306.504 138.951 305.555 140.294C304.606 141.637 303.424 142.684 302.01 143.436C300.613 144.17 298.993 144.537 297.149 144.537C295.412 144.537 293.917 144.152 292.664 143.382C291.411 142.612 290.363 141.547 289.522 140.187C288.681 138.826 288 137.268 287.481 135.514C286.962 133.759 286.55 131.906 286.246 129.955V129.229C286.55 127.135 286.962 125.192 287.481 123.402C288 121.594 288.681 120.018 289.522 118.675C290.363 117.333 291.402 116.285 292.637 115.533C293.89 114.781 295.385 114.405 297.122 114.405C298.966 114.405 300.586 114.754 301.983 115.453C303.397 116.151 304.579 117.153 305.528 118.46C306.495 119.75 307.22 121.298 307.703 123.106C308.187 124.915 308.428 126.92 308.428 129.122ZM299.378 129.686V129.122C299.378 127.994 299.297 126.965 299.136 126.034C298.975 125.085 298.715 124.261 298.357 123.563C298.017 122.865 297.561 122.328 296.988 121.952C296.415 121.576 295.708 121.388 294.866 121.388C293.899 121.388 293.085 121.54 292.422 121.844C291.778 122.131 291.259 122.578 290.865 123.187C290.489 123.778 290.22 124.521 290.059 125.416C289.916 126.293 289.853 127.323 289.871 128.504V130.707C289.835 132.067 289.97 133.267 290.274 134.305C290.578 135.326 291.106 136.122 291.858 136.695C292.61 137.268 293.631 137.555 294.92 137.555C295.779 137.555 296.495 137.358 297.068 136.964C297.641 136.552 298.098 135.988 298.438 135.272C298.778 134.538 299.02 133.696 299.163 132.748C299.306 131.799 299.378 130.778 299.378 129.686ZM326.529 144.537C324.166 144.537 322.053 144.17 320.191 143.436C318.329 142.684 316.753 141.655 315.464 140.348C314.193 139.041 313.217 137.537 312.537 135.836C311.875 134.135 311.543 132.336 311.543 130.438V129.417C311.543 127.287 311.839 125.318 312.43 123.509C313.021 121.683 313.898 120.09 315.062 118.729C316.225 117.368 317.684 116.312 319.439 115.56C321.194 114.79 323.235 114.405 325.562 114.405C327.621 114.405 329.465 114.736 331.094 115.399C332.723 116.061 334.102 117.01 335.23 118.246C336.376 119.481 337.244 120.976 337.835 122.73C338.444 124.485 338.748 126.454 338.748 128.639V132.318H315.008V126.651H329.913V125.953C329.931 124.986 329.76 124.163 329.402 123.482C329.062 122.802 328.561 122.283 327.898 121.925C327.236 121.567 326.43 121.388 325.481 121.388C324.497 121.388 323.682 121.603 323.038 122.032C322.411 122.462 321.919 123.053 321.561 123.805C321.22 124.539 320.979 125.389 320.835 126.356C320.692 127.323 320.621 128.343 320.621 129.417V130.438C320.621 131.512 320.764 132.488 321.05 133.365C321.355 134.243 321.784 134.994 322.339 135.621C322.912 136.23 323.593 136.704 324.38 137.044C325.186 137.385 326.099 137.555 327.12 137.555C328.355 137.555 329.572 137.322 330.772 136.856C331.972 136.391 333.001 135.621 333.86 134.547L337.969 139.435C337.378 140.276 336.537 141.091 335.445 141.878C334.371 142.666 333.082 143.311 331.578 143.812C330.074 144.295 328.391 144.537 326.529 144.537ZM351.316 121.146V144H342.266V114.942H350.752L351.316 121.146ZM350.242 128.478L348.121 128.531C348.121 126.311 348.389 124.333 348.926 122.596C349.463 120.842 350.224 119.356 351.209 118.138C352.194 116.921 353.366 115.999 354.727 115.372C356.106 114.728 357.636 114.405 359.319 114.405C360.662 114.405 361.889 114.602 362.999 114.996C364.126 115.39 365.093 116.026 365.899 116.903C366.722 117.78 367.349 118.944 367.779 120.394C368.226 121.826 368.45 123.599 368.45 125.711V144H359.346V125.685C359.346 124.521 359.185 123.635 358.863 123.026C358.541 122.399 358.075 121.97 357.466 121.737C356.858 121.504 356.115 121.388 355.237 121.388C354.306 121.388 353.519 121.567 352.874 121.925C352.229 122.283 351.71 122.784 351.316 123.429C350.94 124.055 350.663 124.798 350.484 125.658C350.323 126.517 350.242 127.457 350.242 128.478ZM388.699 135.836C388.699 135.335 388.529 134.905 388.189 134.547C387.867 134.171 387.294 133.831 386.47 133.526C385.647 133.204 384.492 132.882 383.006 132.56C381.591 132.255 380.258 131.852 379.004 131.351C377.769 130.85 376.686 130.241 375.755 129.525C374.824 128.809 374.09 127.958 373.553 126.974C373.034 125.989 372.774 124.861 372.774 123.59C372.774 122.354 373.034 121.191 373.553 120.099C374.09 118.989 374.869 118.013 375.889 117.171C376.928 116.312 378.19 115.641 379.676 115.157C381.162 114.656 382.854 114.405 384.751 114.405C387.365 114.405 389.621 114.808 391.519 115.614C393.417 116.402 394.876 117.512 395.896 118.944C396.935 120.358 397.454 121.996 397.454 123.858H388.404C388.404 123.124 388.278 122.498 388.028 121.979C387.795 121.459 387.41 121.065 386.873 120.797C386.336 120.51 385.62 120.367 384.725 120.367C384.098 120.367 383.525 120.484 383.006 120.716C382.505 120.949 382.102 121.271 381.797 121.683C381.493 122.095 381.341 122.578 381.341 123.133C381.341 123.527 381.43 123.885 381.609 124.208C381.806 124.512 382.102 124.798 382.496 125.067C382.889 125.318 383.391 125.55 384 125.765C384.608 125.962 385.342 126.141 386.202 126.302C388.153 126.66 389.979 127.171 391.68 127.833C393.381 128.495 394.76 129.435 395.816 130.653C396.89 131.87 397.427 133.508 397.427 135.567C397.427 136.856 397.132 138.047 396.541 139.139C395.95 140.213 395.1 141.162 393.99 141.986C392.88 142.792 391.546 143.418 389.988 143.866C388.431 144.313 386.676 144.537 384.725 144.537C381.95 144.537 379.604 144.045 377.688 143.06C375.773 142.057 374.323 140.804 373.338 139.3C372.371 137.778 371.888 136.239 371.888 134.681H380.32C380.356 135.576 380.571 136.31 380.965 136.883C381.377 137.456 381.923 137.877 382.603 138.146C383.283 138.414 384.071 138.548 384.966 138.548C385.79 138.548 386.47 138.432 387.007 138.199C387.562 137.966 387.983 137.653 388.27 137.259C388.556 136.847 388.699 136.373 388.699 135.836ZM415.743 144.537C413.379 144.537 411.267 144.17 409.405 143.436C407.543 142.684 405.967 141.655 404.678 140.348C403.407 139.041 402.431 137.537 401.751 135.836C401.089 134.135 400.757 132.336 400.757 130.438V129.417C400.757 127.287 401.053 125.318 401.644 123.509C402.234 121.683 403.112 120.09 404.275 118.729C405.439 117.368 406.898 116.312 408.653 115.56C410.407 114.79 412.448 114.405 414.776 114.405C416.835 114.405 418.679 114.736 420.308 115.399C421.937 116.061 423.316 117.01 424.444 118.246C425.59 119.481 426.458 120.976 427.049 122.73C427.658 124.485 427.962 126.454 427.962 128.639V132.318H404.222V126.651H419.126V125.953C419.144 124.986 418.974 124.163 418.616 123.482C418.276 122.802 417.775 122.283 417.112 121.925C416.45 121.567 415.644 121.388 414.695 121.388C413.711 121.388 412.896 121.603 412.251 122.032C411.625 122.462 411.132 123.053 410.774 123.805C410.434 124.539 410.193 125.389 410.049 126.356C409.906 127.323 409.834 128.343 409.834 129.417V130.438C409.834 131.512 409.978 132.488 410.264 133.365C410.569 134.243 410.998 134.994 411.553 135.621C412.126 136.23 412.806 136.704 413.594 137.044C414.4 137.385 415.313 137.555 416.333 137.555C417.569 137.555 418.786 137.322 419.986 136.856C421.185 136.391 422.215 135.621 423.074 134.547L427.183 139.435C426.592 140.276 425.751 141.091 424.659 141.878C423.584 142.666 422.295 143.311 420.792 143.812C419.288 144.295 417.605 144.537 415.743 144.537ZM463.089 104.898V144H453.663V104.898H463.089ZM474.852 104.898V112.176H442.168V104.898H474.852ZM485.782 122.14V144H476.731V114.942H485.191L485.782 122.14ZM494.375 114.728L494.214 123.133C493.856 123.097 493.373 123.053 492.764 122.999C492.155 122.945 491.645 122.918 491.233 122.918C490.177 122.918 489.264 123.044 488.494 123.294C487.742 123.527 487.116 123.885 486.614 124.369C486.131 124.834 485.773 125.425 485.54 126.141C485.325 126.857 485.227 127.69 485.245 128.639L483.606 127.564C483.606 125.613 483.794 123.84 484.17 122.247C484.564 120.636 485.119 119.248 485.835 118.084C486.552 116.903 487.42 115.999 488.44 115.372C489.461 114.728 490.607 114.405 491.878 114.405C492.326 114.405 492.764 114.432 493.194 114.486C493.641 114.54 494.035 114.62 494.375 114.728ZM511.778 136.695V124.718C511.778 123.894 511.661 123.187 511.429 122.596C511.196 122.005 510.829 121.549 510.328 121.227C509.826 120.886 509.155 120.716 508.313 120.716C507.633 120.716 507.051 120.833 506.568 121.065C506.084 121.298 505.717 121.647 505.467 122.113C505.216 122.578 505.091 123.169 505.091 123.885H496.041C496.041 122.542 496.336 121.298 496.927 120.152C497.535 118.989 498.395 117.977 499.505 117.118C500.633 116.258 501.976 115.596 503.533 115.13C505.109 114.647 506.863 114.405 508.797 114.405C511.106 114.405 513.165 114.79 514.974 115.56C516.8 116.33 518.241 117.485 519.297 119.024C520.354 120.546 520.882 122.462 520.882 124.771V136.668C520.882 138.566 520.989 140.007 521.204 140.992C521.419 141.959 521.723 142.809 522.117 143.543V144H513.04C512.61 143.105 512.288 142.013 512.073 140.724C511.876 139.417 511.778 138.074 511.778 136.695ZM512.879 126.249L512.933 131.083H508.931C508.09 131.083 507.374 131.199 506.783 131.432C506.21 131.664 505.744 131.987 505.386 132.398C505.046 132.792 504.795 133.24 504.634 133.741C504.491 134.243 504.419 134.771 504.419 135.326C504.419 135.863 504.545 136.346 504.795 136.776C505.064 137.188 505.422 137.51 505.87 137.743C506.317 137.975 506.819 138.092 507.374 138.092C508.376 138.092 509.227 137.904 509.925 137.528C510.641 137.134 511.187 136.66 511.563 136.104C511.939 135.549 512.127 135.03 512.127 134.547L514.114 138.253C513.756 138.969 513.344 139.694 512.879 140.428C512.431 141.162 511.867 141.843 511.187 142.469C510.525 143.078 509.71 143.579 508.743 143.973C507.776 144.349 506.604 144.537 505.225 144.537C503.435 144.537 501.788 144.17 500.284 143.436C498.798 142.702 497.607 141.681 496.712 140.375C495.817 139.05 495.369 137.528 495.369 135.809C495.369 134.305 495.638 132.962 496.175 131.781C496.73 130.599 497.562 129.597 498.672 128.773C499.782 127.949 501.197 127.323 502.916 126.893C504.634 126.463 506.657 126.249 508.985 126.249H512.879ZM538.177 137.555C539.018 137.555 539.734 137.403 540.325 137.098C540.934 136.776 541.39 136.328 541.695 135.755C542.017 135.165 542.169 134.457 542.151 133.634H550.665C550.682 135.818 550.145 137.734 549.053 139.381C547.979 141.01 546.511 142.281 544.649 143.194C542.805 144.09 540.719 144.537 538.392 144.537C536.118 144.537 534.131 144.17 532.43 143.436C530.729 142.684 529.306 141.646 528.16 140.321C527.032 138.978 526.181 137.411 525.608 135.621C525.053 133.831 524.776 131.888 524.776 129.793V129.176C524.776 127.081 525.053 125.139 525.608 123.348C526.181 121.54 527.032 119.973 528.16 118.648C529.306 117.306 530.72 116.267 532.403 115.533C534.104 114.781 536.082 114.405 538.338 114.405C540.755 114.405 542.885 114.862 544.729 115.775C546.591 116.688 548.051 118.013 549.107 119.75C550.163 121.486 550.682 123.59 550.665 126.061H542.151C542.169 125.183 542.035 124.396 541.749 123.697C541.462 122.999 541.014 122.444 540.406 122.032C539.815 121.603 539.054 121.388 538.123 121.388C537.192 121.388 536.44 121.594 535.867 122.005C535.294 122.417 534.856 122.99 534.551 123.724C534.265 124.44 534.068 125.264 533.96 126.195C533.871 127.126 533.826 128.119 533.826 129.176V129.793C533.826 130.868 533.871 131.879 533.96 132.828C534.068 133.759 534.274 134.583 534.578 135.299C534.882 135.997 535.321 136.552 535.894 136.964C536.467 137.358 537.228 137.555 538.177 137.555ZM563.663 102.723V144H554.612V102.723H563.663ZM582.247 114.942L569.625 129.74L563.018 136.346L559.07 130.599L564.576 123.429L571.397 114.942H582.247ZM572.552 144L564.791 130.76L571.478 126.007L582.918 144H572.552ZM598.145 144.537C595.782 144.537 593.669 144.17 591.807 143.436C589.945 142.684 588.37 141.655 587.081 140.348C585.809 139.041 584.834 137.537 584.153 135.836C583.491 134.135 583.16 132.336 583.16 130.438V129.417C583.16 127.287 583.455 125.318 584.046 123.509C584.637 121.683 585.514 120.09 586.678 118.729C587.841 117.368 589.301 116.312 591.055 115.56C592.81 114.79 594.851 114.405 597.178 114.405C599.237 114.405 601.081 114.736 602.71 115.399C604.34 116.061 605.718 117.01 606.846 118.246C607.992 119.481 608.86 120.976 609.451 122.73C610.06 124.485 610.364 126.454 610.364 128.639V132.318H586.624V126.651H601.529V125.953C601.547 124.986 601.377 124.163 601.019 123.482C600.678 122.802 600.177 122.283 599.515 121.925C598.852 121.567 598.047 121.388 597.098 121.388C596.113 121.388 595.298 121.603 594.654 122.032C594.027 122.462 593.535 123.053 593.177 123.805C592.837 124.539 592.595 125.389 592.452 126.356C592.308 127.323 592.237 128.343 592.237 129.417V130.438C592.237 131.512 592.38 132.488 592.667 133.365C592.971 134.243 593.401 134.994 593.956 135.621C594.528 136.23 595.209 136.704 595.997 137.044C596.802 137.385 597.715 137.555 598.736 137.555C599.971 137.555 601.189 137.322 602.388 136.856C603.588 136.391 604.617 135.621 605.477 134.547L609.585 139.435C608.995 140.276 608.153 141.091 607.061 141.878C605.987 142.666 604.698 143.311 603.194 143.812C601.69 144.295 600.007 144.537 598.145 144.537ZM623.174 122.14V144H614.124V114.942H622.583L623.174 122.14ZM631.768 114.728L631.607 123.133C631.249 123.097 630.765 123.053 630.157 122.999C629.548 122.945 629.038 122.918 628.626 122.918C627.57 122.918 626.657 123.044 625.887 123.294C625.135 123.527 624.508 123.885 624.007 124.369C623.523 124.834 623.165 125.425 622.933 126.141C622.718 126.857 622.619 127.69 622.637 128.639L620.999 127.564C620.999 125.613 621.187 123.84 621.563 122.247C621.957 120.636 622.512 119.248 623.228 118.084C623.944 116.903 624.812 115.999 625.833 115.372C626.854 114.728 627.999 114.405 629.271 114.405C629.718 114.405 630.157 114.432 630.586 114.486C631.034 114.54 631.428 114.62 631.768 114.728Z" fill="black"/>
<path d="M110.816 65.2515V69.2505H97.8276V65.2515H110.816ZM99.3486 55.1172V80H94.2217V55.1172H99.3486ZM114.473 55.1172V80H109.363V55.1172H114.473ZM128.606 75.8301V67.5928C128.606 67.0003 128.51 66.4933 128.316 66.0718C128.122 65.6388 127.82 65.3027 127.41 65.0635C127.011 64.8242 126.493 64.7046 125.855 64.7046C125.308 64.7046 124.835 64.8014 124.437 64.9951C124.038 65.1774 123.73 65.4451 123.514 65.7983C123.297 66.1401 123.189 66.5446 123.189 67.0117H118.267C118.267 66.2256 118.449 65.4793 118.814 64.7729C119.179 64.0666 119.708 63.4456 120.403 62.9102C121.098 62.3633 121.924 61.936 122.881 61.6284C123.85 61.3208 124.932 61.167 126.128 61.167C127.564 61.167 128.84 61.4062 129.957 61.8848C131.073 62.3633 131.95 63.0811 132.588 64.0381C133.238 64.9951 133.562 66.1914 133.562 67.627V75.5396C133.562 76.5535 133.625 77.3853 133.75 78.0347C133.876 78.6727 134.058 79.231 134.297 79.7095V80H129.324C129.085 79.4987 128.903 78.8721 128.777 78.1201C128.663 77.3568 128.606 76.5934 128.606 75.8301ZM129.256 68.7378L129.29 71.5234H126.539C125.889 71.5234 125.325 71.5975 124.847 71.7456C124.368 71.8937 123.975 72.1045 123.667 72.3779C123.36 72.64 123.132 72.9476 122.984 73.3008C122.847 73.654 122.779 74.0413 122.779 74.4629C122.779 74.8844 122.876 75.2661 123.069 75.6079C123.263 75.9383 123.542 76.2004 123.907 76.394C124.271 76.5763 124.699 76.6675 125.188 76.6675C125.929 76.6675 126.573 76.5194 127.12 76.2231C127.667 75.9269 128.088 75.5623 128.384 75.1294C128.692 74.6965 128.851 74.2863 128.863 73.8989L130.162 75.9839C129.979 76.451 129.729 76.9352 129.41 77.4365C129.102 77.9378 128.709 78.4106 128.23 78.855C127.752 79.2879 127.177 79.6468 126.504 79.9316C125.832 80.2051 125.035 80.3418 124.112 80.3418C122.938 80.3418 121.873 80.1082 120.916 79.6411C119.97 79.1626 119.218 78.5075 118.66 77.6758C118.113 76.8327 117.84 75.8757 117.84 74.8047C117.84 73.8363 118.022 72.9761 118.387 72.2241C118.751 71.4722 119.287 70.8398 119.993 70.3271C120.711 69.8031 121.605 69.41 122.676 69.1479C123.747 68.8745 124.989 68.7378 126.402 68.7378H129.256ZM147.354 74.8901C147.354 74.5369 147.251 74.2179 147.046 73.9331C146.841 73.6483 146.46 73.3862 145.901 73.147C145.354 72.8963 144.563 72.6685 143.526 72.4634C142.592 72.2583 141.72 72.002 140.911 71.6943C140.114 71.3753 139.419 70.9937 138.826 70.5493C138.245 70.105 137.789 69.5809 137.459 68.9771C137.129 68.3618 136.963 67.6611 136.963 66.875C136.963 66.1003 137.129 65.3711 137.459 64.6875C137.801 64.0039 138.285 63.4001 138.912 62.876C139.55 62.3405 140.324 61.9246 141.236 61.6284C142.159 61.3208 143.195 61.167 144.346 61.167C145.953 61.167 147.331 61.4233 148.482 61.936C149.644 62.4487 150.533 63.1551 151.148 64.0552C151.775 64.9438 152.088 65.9578 152.088 67.0972H147.166C147.166 66.6187 147.063 66.1914 146.858 65.8154C146.665 65.4281 146.357 65.1261 145.936 64.9097C145.525 64.6818 144.99 64.5679 144.329 64.5679C143.782 64.5679 143.309 64.6647 142.911 64.8584C142.512 65.0407 142.204 65.2913 141.988 65.6104C141.783 65.918 141.68 66.2598 141.68 66.6357C141.68 66.9206 141.737 67.1769 141.851 67.4048C141.976 67.6213 142.176 67.8206 142.449 68.0029C142.723 68.1852 143.076 68.3561 143.509 68.5156C143.953 68.6637 144.5 68.8005 145.149 68.9258C146.482 69.1992 147.673 69.5581 148.721 70.0024C149.769 70.4354 150.601 71.0278 151.216 71.7798C151.832 72.5203 152.139 73.4945 152.139 74.7021C152.139 75.5225 151.957 76.2744 151.592 76.958C151.228 77.6416 150.704 78.2397 150.02 78.7524C149.336 79.2537 148.516 79.6468 147.559 79.9316C146.613 80.2051 145.548 80.3418 144.363 80.3418C142.643 80.3418 141.185 80.0342 139.988 79.4189C138.803 78.8037 137.903 78.0233 137.288 77.0776C136.684 76.1206 136.382 75.1408 136.382 74.1382H141.048C141.071 74.8104 141.242 75.3516 141.561 75.7617C141.891 76.1719 142.307 76.4681 142.808 76.6504C143.321 76.8327 143.873 76.9238 144.466 76.9238C145.104 76.9238 145.634 76.8384 146.055 76.6675C146.477 76.4852 146.796 76.2459 147.012 75.9497C147.24 75.6421 147.354 75.2889 147.354 74.8901ZM165.333 74.8901C165.333 74.5369 165.23 74.2179 165.025 73.9331C164.82 73.6483 164.438 73.3862 163.88 73.147C163.333 72.8963 162.541 72.6685 161.504 72.4634C160.57 72.2583 159.699 72.002 158.89 71.6943C158.092 71.3753 157.397 70.9937 156.805 70.5493C156.224 70.105 155.768 69.5809 155.438 68.9771C155.107 68.3618 154.942 67.6611 154.942 66.875C154.942 66.1003 155.107 65.3711 155.438 64.6875C155.779 64.0039 156.264 63.4001 156.89 62.876C157.528 62.3405 158.303 61.9246 159.214 61.6284C160.137 61.3208 161.174 61.167 162.325 61.167C163.931 61.167 165.31 61.4233 166.46 61.936C167.623 62.4487 168.511 63.1551 169.126 64.0552C169.753 64.9438 170.066 65.9578 170.066 67.0972H165.145C165.145 66.6187 165.042 66.1914 164.837 65.8154C164.643 65.4281 164.336 65.1261 163.914 64.9097C163.504 64.6818 162.968 64.5679 162.308 64.5679C161.761 64.5679 161.288 64.6647 160.889 64.8584C160.49 65.0407 160.183 65.2913 159.966 65.6104C159.761 65.918 159.659 66.2598 159.659 66.6357C159.659 66.9206 159.716 67.1769 159.83 67.4048C159.955 67.6213 160.154 67.8206 160.428 68.0029C160.701 68.1852 161.054 68.3561 161.487 68.5156C161.932 68.6637 162.479 68.8005 163.128 68.9258C164.461 69.1992 165.652 69.5581 166.7 70.0024C167.748 70.4354 168.58 71.0278 169.195 71.7798C169.81 72.5203 170.118 73.4945 170.118 74.7021C170.118 75.5225 169.935 76.2744 169.571 76.958C169.206 77.6416 168.682 78.2397 167.999 78.7524C167.315 79.2537 166.495 79.6468 165.538 79.9316C164.592 80.2051 163.527 80.3418 162.342 80.3418C160.621 80.3418 159.163 80.0342 157.967 79.4189C156.782 78.8037 155.882 78.0233 155.267 77.0776C154.663 76.1206 154.361 75.1408 154.361 74.1382H159.026C159.049 74.8104 159.22 75.3516 159.539 75.7617C159.869 76.1719 160.285 76.4681 160.787 76.6504C161.299 76.8327 161.852 76.9238 162.444 76.9238C163.082 76.9238 163.612 76.8384 164.034 76.6675C164.455 76.4852 164.774 76.2459 164.991 75.9497C165.219 75.6421 165.333 75.2889 165.333 74.8901ZM183.294 75.8301V67.5928C183.294 67.0003 183.197 66.4933 183.003 66.0718C182.81 65.6388 182.508 65.3027 182.098 65.0635C181.699 64.8242 181.181 64.7046 180.542 64.7046C179.996 64.7046 179.523 64.8014 179.124 64.9951C178.725 65.1774 178.418 65.4451 178.201 65.7983C177.985 66.1401 177.876 66.5446 177.876 67.0117H172.955C172.955 66.2256 173.137 65.4793 173.501 64.7729C173.866 64.0666 174.396 63.4456 175.091 62.9102C175.786 62.3633 176.612 61.936 177.569 61.6284C178.537 61.3208 179.62 61.167 180.816 61.167C182.251 61.167 183.528 61.4062 184.644 61.8848C185.761 62.3633 186.638 63.0811 187.276 64.0381C187.925 64.9951 188.25 66.1914 188.25 67.627V75.5396C188.25 76.5535 188.313 77.3853 188.438 78.0347C188.563 78.6727 188.746 79.231 188.985 79.7095V80H184.012C183.772 79.4987 183.59 78.8721 183.465 78.1201C183.351 77.3568 183.294 76.5934 183.294 75.8301ZM183.943 68.7378L183.978 71.5234H181.226C180.577 71.5234 180.013 71.5975 179.534 71.7456C179.056 71.8937 178.663 72.1045 178.355 72.3779C178.047 72.64 177.819 72.9476 177.671 73.3008C177.535 73.654 177.466 74.0413 177.466 74.4629C177.466 74.8844 177.563 75.2661 177.757 75.6079C177.951 75.9383 178.23 76.2004 178.594 76.394C178.959 76.5763 179.386 76.6675 179.876 76.6675C180.617 76.6675 181.26 76.5194 181.807 76.2231C182.354 75.9269 182.776 75.5623 183.072 75.1294C183.379 74.6965 183.539 74.2863 183.55 73.8989L184.849 75.9839C184.667 76.451 184.416 76.9352 184.097 77.4365C183.79 77.9378 183.396 78.4106 182.918 78.855C182.439 79.2879 181.864 79.6468 181.192 79.9316C180.52 80.2051 179.722 80.3418 178.799 80.3418C177.626 80.3418 176.561 80.1082 175.604 79.6411C174.658 79.1626 173.906 78.5075 173.348 77.6758C172.801 76.8327 172.527 75.8757 172.527 74.8047C172.527 73.8363 172.71 72.9761 173.074 72.2241C173.439 71.4722 173.974 70.8398 174.681 70.3271C175.398 69.8031 176.293 69.41 177.364 69.1479C178.435 68.8745 179.677 68.7378 181.089 68.7378H183.943ZM196.863 65.4565V80H191.941V61.5088H196.556L196.863 65.4565ZM196.146 70.105H194.812C194.812 68.7378 194.989 67.5073 195.342 66.4136C195.695 65.3084 196.191 64.3685 196.829 63.5938C197.467 62.8076 198.225 62.2095 199.102 61.7993C199.991 61.3778 200.982 61.167 202.076 61.167C202.942 61.167 203.733 61.2923 204.451 61.543C205.169 61.7936 205.784 62.1924 206.297 62.7393C206.821 63.2861 207.22 64.0096 207.493 64.9097C207.778 65.8097 207.92 66.9092 207.92 68.208V80H202.964V68.1909C202.964 67.3706 202.85 66.7326 202.623 66.2769C202.395 65.8211 202.059 65.5021 201.614 65.3198C201.181 65.1261 200.646 65.0293 200.008 65.0293C199.347 65.0293 198.772 65.1603 198.282 65.4224C197.803 65.6844 197.404 66.049 197.085 66.5161C196.778 66.9718 196.544 67.5073 196.385 68.1226C196.225 68.7378 196.146 69.3986 196.146 70.105ZM238.682 76.001V80H221.045V76.001H238.682ZM238.426 57.9712L223.318 80H219.712V77.0605L234.939 55.1172H238.426V57.9712ZM236.666 55.1172V59.1333H219.729V55.1172H236.666ZM241.639 53.75H246.561V75.7617L246.065 80H241.639V53.75ZM258.267 70.5664V70.9253C258.267 72.3039 258.119 73.5685 257.823 74.7192C257.538 75.87 257.094 76.8669 256.49 77.71C255.886 78.5417 255.134 79.1911 254.234 79.6582C253.345 80.1139 252.297 80.3418 251.089 80.3418C249.961 80.3418 248.982 80.1139 248.15 79.6582C247.33 79.2025 246.64 78.5588 246.082 77.7271C245.524 76.8953 245.074 75.9212 244.732 74.8047C244.39 73.6882 244.134 72.4691 243.963 71.1475V70.3613C244.134 69.0397 244.39 67.8206 244.732 66.7041C245.074 65.5876 245.524 64.6134 246.082 63.7817C246.64 62.95 247.33 62.3063 248.15 61.8506C248.97 61.3949 249.939 61.167 251.055 61.167C252.274 61.167 253.334 61.4006 254.234 61.8677C255.145 62.3234 255.897 62.9728 256.49 63.8159C257.094 64.6476 257.538 65.6388 257.823 66.7896C258.119 67.9289 258.267 69.1878 258.267 70.5664ZM253.345 70.9253V70.5664C253.345 69.8145 253.288 69.1081 253.174 68.4473C253.072 67.7751 252.889 67.1883 252.627 66.687C252.365 66.1743 252.007 65.7699 251.551 65.4736C251.106 65.1774 250.531 65.0293 249.825 65.0293C249.153 65.0293 248.583 65.1432 248.116 65.3711C247.649 65.599 247.261 65.918 246.954 66.3281C246.657 66.7383 246.435 67.2282 246.287 67.7979C246.139 68.3561 246.048 68.9714 246.014 69.6436V71.8823C246.048 72.7824 246.196 73.5799 246.458 74.2749C246.731 74.9585 247.142 75.4997 247.688 75.8984C248.247 76.2858 248.97 76.4795 249.859 76.4795C250.554 76.4795 251.129 76.3428 251.585 76.0693C252.041 75.7959 252.394 75.4085 252.645 74.9072C252.907 74.4059 253.089 73.8192 253.191 73.147C253.294 72.4634 253.345 71.7228 253.345 70.9253ZM266.521 61.5088V80H261.583V61.5088H266.521ZM261.275 56.6895C261.275 55.9717 261.526 55.3792 262.027 54.9121C262.528 54.445 263.2 54.2114 264.043 54.2114C264.875 54.2114 265.542 54.445 266.043 54.9121C266.556 55.3792 266.812 55.9717 266.812 56.6895C266.812 57.4072 266.556 57.9997 266.043 58.4668C265.542 58.9339 264.875 59.1675 264.043 59.1675C263.2 59.1675 262.528 58.9339 262.027 58.4668C261.526 57.9997 261.275 57.4072 261.275 56.6895ZM270.589 53.75H275.511V75.7617L275.015 80H270.589V53.75ZM287.217 70.5664V70.9253C287.217 72.3039 287.069 73.5685 286.773 74.7192C286.488 75.87 286.044 76.8669 285.44 77.71C284.836 78.5417 284.084 79.1911 283.184 79.6582C282.295 80.1139 281.247 80.3418 280.04 80.3418C278.912 80.3418 277.932 80.1139 277.1 79.6582C276.28 79.2025 275.59 78.5588 275.032 77.7271C274.474 76.8953 274.024 75.9212 273.682 74.8047C273.34 73.6882 273.084 72.4691 272.913 71.1475V70.3613C273.084 69.0397 273.34 67.8206 273.682 66.7041C274.024 65.5876 274.474 64.6134 275.032 63.7817C275.59 62.95 276.28 62.3063 277.1 61.8506C277.92 61.3949 278.889 61.167 280.005 61.167C281.224 61.167 282.284 61.4006 283.184 61.8677C284.096 62.3234 284.847 62.9728 285.44 63.8159C286.044 64.6476 286.488 65.6388 286.773 66.7896C287.069 67.9289 287.217 69.1878 287.217 70.5664ZM282.295 70.9253V70.5664C282.295 69.8145 282.238 69.1081 282.125 68.4473C282.022 67.7751 281.84 67.1883 281.578 66.687C281.316 66.1743 280.957 65.7699 280.501 65.4736C280.057 65.1774 279.481 65.0293 278.775 65.0293C278.103 65.0293 277.533 65.1432 277.066 65.3711C276.599 65.599 276.211 65.918 275.904 66.3281C275.608 66.7383 275.385 67.2282 275.237 67.7979C275.089 68.3561 274.998 68.9714 274.964 69.6436V71.8823C274.998 72.7824 275.146 73.5799 275.408 74.2749C275.682 74.9585 276.092 75.4997 276.639 75.8984C277.197 76.2858 277.92 76.4795 278.809 76.4795C279.504 76.4795 280.079 76.3428 280.535 76.0693C280.991 75.7959 281.344 75.4085 281.595 74.9072C281.857 74.4059 282.039 73.8192 282.142 73.147C282.244 72.4634 282.295 71.7228 282.295 70.9253Z" fill="#888888"/>
<rect x="92" y="181" width="1179" height="80" rx="13.3333" fill="#CCCCCC"/>
<rect x="107" y="196.333" width="208" height="49.3333" rx="4.66667" fill="#888888" stroke="#888888" stroke-width="4"/>
<path d="M171.823 213.167H177.792C178.958 213.167 179.972 213.34 180.833 213.687C181.694 214.035 182.358 214.549 182.823 215.229C183.295 215.91 183.531 216.75 183.531 217.75C183.531 218.618 183.396 219.344 183.125 219.927C182.854 220.51 182.476 220.993 181.99 221.375C181.51 221.75 180.951 222.059 180.312 222.302L179.115 222.979H174.104L174.083 220.156H177.792C178.257 220.156 178.642 220.073 178.948 219.906C179.253 219.74 179.483 219.503 179.635 219.198C179.795 218.885 179.875 218.514 179.875 218.083C179.875 217.646 179.795 217.271 179.635 216.958C179.476 216.646 179.24 216.406 178.927 216.24C178.622 216.073 178.243 215.99 177.792 215.99H175.479V228.333H171.823V213.167ZM180.125 228.333L176.771 221.625L180.646 221.604L184.042 228.177V228.333H180.125ZM191.031 228.542C190.115 228.542 189.295 228.399 188.573 228.115C187.851 227.823 187.24 227.424 186.74 226.917C186.247 226.41 185.868 225.826 185.604 225.167C185.347 224.507 185.219 223.809 185.219 223.073V222.677C185.219 221.851 185.333 221.087 185.562 220.385C185.792 219.677 186.132 219.059 186.583 218.531C187.035 218.003 187.601 217.594 188.281 217.302C188.962 217.003 189.753 216.854 190.656 216.854C191.455 216.854 192.17 216.983 192.802 217.24C193.434 217.497 193.969 217.865 194.406 218.344C194.851 218.823 195.187 219.403 195.417 220.083C195.653 220.764 195.771 221.528 195.771 222.375V223.802H186.562V221.604H192.344V221.333C192.351 220.958 192.285 220.639 192.146 220.375C192.014 220.111 191.819 219.91 191.562 219.771C191.306 219.632 190.993 219.562 190.625 219.562C190.243 219.562 189.927 219.646 189.677 219.812C189.434 219.979 189.243 220.208 189.104 220.5C188.972 220.785 188.878 221.115 188.823 221.49C188.767 221.865 188.74 222.26 188.74 222.677V223.073C188.74 223.49 188.795 223.868 188.906 224.208C189.024 224.549 189.191 224.84 189.406 225.083C189.628 225.319 189.892 225.503 190.198 225.635C190.51 225.767 190.865 225.833 191.26 225.833C191.74 225.833 192.212 225.743 192.677 225.562C193.142 225.382 193.542 225.083 193.875 224.667L195.469 226.562C195.24 226.889 194.913 227.205 194.49 227.51C194.073 227.816 193.573 228.066 192.99 228.26C192.406 228.448 191.753 228.542 191.031 228.542ZM203.052 225.5V220.854C203.052 220.535 203.007 220.26 202.917 220.031C202.826 219.802 202.684 219.625 202.49 219.5C202.295 219.368 202.035 219.302 201.708 219.302C201.444 219.302 201.219 219.347 201.031 219.437C200.844 219.528 200.701 219.663 200.604 219.844C200.507 220.024 200.458 220.253 200.458 220.531H196.948C196.948 220.01 197.062 219.528 197.292 219.083C197.528 218.632 197.861 218.24 198.292 217.906C198.729 217.573 199.25 217.316 199.854 217.135C200.465 216.948 201.146 216.854 201.896 216.854C202.792 216.854 203.59 217.003 204.292 217.302C205 217.601 205.559 218.049 205.969 218.646C206.378 219.236 206.583 219.979 206.583 220.875V225.49C206.583 226.226 206.625 226.785 206.708 227.167C206.792 227.542 206.91 227.872 207.062 228.156V228.333H203.542C203.375 227.986 203.25 227.562 203.167 227.062C203.09 226.556 203.052 226.035 203.052 225.5ZM203.479 221.448L203.5 223.323H201.948C201.622 223.323 201.344 223.368 201.115 223.458C200.892 223.549 200.712 223.674 200.573 223.833C200.441 223.986 200.344 224.16 200.281 224.354C200.226 224.549 200.198 224.753 200.198 224.969C200.198 225.177 200.247 225.365 200.344 225.531C200.448 225.691 200.587 225.816 200.76 225.906C200.934 225.997 201.128 226.042 201.344 226.042C201.733 226.042 202.062 225.969 202.333 225.823C202.611 225.67 202.823 225.486 202.969 225.271C203.115 225.056 203.187 224.854 203.187 224.667L203.958 226.104C203.819 226.382 203.66 226.663 203.479 226.948C203.306 227.233 203.087 227.497 202.823 227.74C202.566 227.976 202.25 228.17 201.875 228.323C201.5 228.469 201.045 228.542 200.51 228.542C199.816 228.542 199.177 228.399 198.594 228.115C198.017 227.83 197.556 227.434 197.208 226.927C196.861 226.413 196.687 225.823 196.687 225.156C196.687 224.573 196.792 224.052 197 223.594C197.215 223.135 197.538 222.747 197.969 222.427C198.399 222.108 198.948 221.865 199.615 221.698C200.281 221.531 201.066 221.448 201.969 221.448H203.479ZM213.292 225.833C213.618 225.833 213.896 225.774 214.125 225.656C214.361 225.531 214.538 225.358 214.656 225.135C214.781 224.906 214.84 224.632 214.833 224.312H218.135C218.142 225.16 217.934 225.903 217.51 226.542C217.094 227.174 216.524 227.667 215.802 228.021C215.087 228.368 214.278 228.542 213.375 228.542C212.493 228.542 211.722 228.399 211.062 228.115C210.403 227.823 209.851 227.42 209.406 226.906C208.969 226.385 208.639 225.778 208.417 225.083C208.201 224.389 208.094 223.635 208.094 222.823V222.583C208.094 221.771 208.201 221.017 208.417 220.323C208.639 219.622 208.969 219.014 209.406 218.5C209.851 217.979 210.399 217.576 211.052 217.292C211.712 217 212.479 216.854 213.354 216.854C214.292 216.854 215.118 217.031 215.833 217.385C216.556 217.74 217.122 218.253 217.531 218.927C217.941 219.601 218.142 220.417 218.135 221.375H214.833C214.84 221.035 214.788 220.729 214.677 220.458C214.566 220.187 214.392 219.972 214.156 219.812C213.927 219.646 213.632 219.562 213.271 219.562C212.91 219.562 212.618 219.642 212.396 219.802C212.174 219.962 212.003 220.184 211.885 220.469C211.774 220.747 211.698 221.066 211.656 221.427C211.622 221.788 211.604 222.174 211.604 222.583V222.823C211.604 223.24 211.622 223.632 211.656 224C211.698 224.361 211.778 224.681 211.896 224.958C212.014 225.229 212.184 225.444 212.406 225.604C212.628 225.757 212.924 225.833 213.292 225.833ZM225.573 217.062V219.5H218.781V217.062H225.573ZM220.208 214.26H223.719V224.656C223.719 224.955 223.753 225.187 223.823 225.354C223.892 225.514 224.01 225.628 224.177 225.698C224.351 225.76 224.58 225.792 224.865 225.792C225.066 225.792 225.233 225.788 225.365 225.781C225.497 225.767 225.622 225.75 225.74 225.729V228.24C225.441 228.337 225.128 228.41 224.802 228.458C224.476 228.514 224.128 228.542 223.76 228.542C223.01 228.542 222.368 228.424 221.833 228.187C221.306 227.951 220.903 227.58 220.625 227.073C220.347 226.566 220.208 225.906 220.208 225.094V214.26ZM233.167 223.573V213.167H236.812V223.573C236.812 224.587 236.58 225.465 236.115 226.208C235.656 226.951 235.031 227.528 234.24 227.937C233.455 228.34 232.573 228.542 231.594 228.542C230.58 228.542 229.677 228.372 228.885 228.031C228.101 227.691 227.483 227.167 227.031 226.458C226.587 225.75 226.365 224.847 226.365 223.75H230.031C230.031 224.264 230.09 224.667 230.208 224.958C230.326 225.243 230.5 225.444 230.729 225.562C230.965 225.674 231.253 225.729 231.594 225.729C231.927 225.729 232.208 225.646 232.437 225.479C232.674 225.306 232.854 225.059 232.979 224.74C233.104 224.413 233.167 224.024 233.167 223.573ZM246.948 224.302C246.948 224.066 246.913 223.854 246.844 223.667C246.774 223.472 246.646 223.292 246.458 223.125C246.271 222.958 246 222.792 245.646 222.625C245.299 222.451 244.84 222.271 244.271 222.083C243.604 221.861 242.962 221.611 242.344 221.333C241.726 221.049 241.174 220.719 240.687 220.344C240.201 219.962 239.816 219.517 239.531 219.01C239.247 218.497 239.104 217.899 239.104 217.219C239.104 216.566 239.25 215.979 239.542 215.458C239.833 214.931 240.24 214.483 240.76 214.115C241.288 213.74 241.906 213.455 242.615 213.26C243.323 213.059 244.097 212.958 244.937 212.958C246.049 212.958 247.028 213.153 247.875 213.542C248.729 213.924 249.396 214.469 249.875 215.177C250.361 215.878 250.604 216.708 250.604 217.667H246.969C246.969 217.285 246.889 216.948 246.729 216.656C246.576 216.365 246.344 216.135 246.031 215.969C245.719 215.802 245.326 215.719 244.854 215.719C244.396 215.719 244.01 215.788 243.698 215.927C243.385 216.066 243.149 216.253 242.99 216.49C242.83 216.719 242.75 216.972 242.75 217.25C242.75 217.479 242.812 217.687 242.937 217.875C243.069 218.056 243.253 218.226 243.49 218.385C243.733 218.545 244.024 218.698 244.365 218.844C244.712 218.99 245.101 219.132 245.531 219.271C246.337 219.528 247.052 219.816 247.677 220.135C248.309 220.448 248.84 220.806 249.271 221.208C249.708 221.604 250.038 222.056 250.26 222.562C250.49 223.069 250.604 223.642 250.604 224.281C250.604 224.962 250.472 225.566 250.208 226.094C249.944 226.622 249.566 227.069 249.073 227.437C248.58 227.799 247.99 228.073 247.302 228.26C246.615 228.448 245.847 228.542 245 228.542C244.222 228.542 243.455 228.444 242.698 228.25C241.948 228.049 241.267 227.743 240.656 227.333C240.045 226.917 239.556 226.385 239.187 225.74C238.826 225.087 238.646 224.312 238.646 223.417H242.312C242.312 223.861 242.372 224.236 242.49 224.542C242.608 224.847 242.781 225.094 243.01 225.281C243.24 225.462 243.521 225.594 243.854 225.677C244.187 225.753 244.569 225.792 245 225.792C245.465 225.792 245.84 225.726 246.125 225.594C246.41 225.455 246.618 225.274 246.75 225.052C246.882 224.823 246.948 224.573 246.948 224.302Z" fill="white"/>
<rect x="339" y="196.333" width="208" height="49.3333" rx="4.66667" fill="#888888" stroke="#888888" stroke-width="4"/>
<path d="M418.844 213.167V228.333H415.198L409.833 218.896V228.333H406.177V213.167H409.833L415.198 222.604V213.167H418.844ZM420.552 222.812V222.594C420.552 221.767 420.67 221.007 420.906 220.312C421.142 219.611 421.49 219.003 421.948 218.49C422.406 217.976 422.972 217.576 423.646 217.292C424.319 217 425.097 216.854 425.979 216.854C426.868 216.854 427.649 217 428.323 217.292C429.003 217.576 429.573 217.976 430.031 218.49C430.49 219.003 430.837 219.611 431.073 220.312C431.309 221.007 431.427 221.767 431.427 222.594V222.812C431.427 223.632 431.309 224.392 431.073 225.094C430.837 225.788 430.49 226.396 430.031 226.917C429.573 227.431 429.007 227.83 428.333 228.115C427.66 228.399 426.882 228.542 426 228.542C425.118 228.542 424.337 228.399 423.656 228.115C422.976 227.83 422.406 227.431 421.948 226.917C421.49 226.396 421.142 225.788 420.906 225.094C420.67 224.392 420.552 223.632 420.552 222.812ZM424.062 222.594V222.812C424.062 223.236 424.094 223.632 424.156 224C424.219 224.368 424.323 224.691 424.469 224.969C424.615 225.24 424.812 225.451 425.062 225.604C425.312 225.757 425.625 225.833 426 225.833C426.368 225.833 426.674 225.757 426.917 225.604C427.167 225.451 427.365 225.24 427.51 224.969C427.656 224.691 427.76 224.368 427.823 224C427.885 223.632 427.917 223.236 427.917 222.812V222.594C427.917 222.184 427.885 221.799 427.823 221.437C427.76 221.069 427.656 220.747 427.51 220.469C427.365 220.184 427.167 219.962 426.917 219.802C426.667 219.642 426.354 219.562 425.979 219.562C425.611 219.562 425.302 219.642 425.052 219.802C424.809 219.962 424.615 220.184 424.469 220.469C424.323 220.747 424.219 221.069 424.156 221.437C424.094 221.799 424.062 222.184 424.062 222.594ZM439.469 225.75V212.333H443V228.333H439.833L439.469 225.75ZM432.552 222.833V222.615C432.552 221.76 432.646 220.983 432.833 220.281C433.021 219.573 433.299 218.965 433.667 218.458C434.035 217.944 434.493 217.549 435.042 217.271C435.59 216.993 436.222 216.854 436.938 216.854C437.576 216.854 438.135 217.003 438.615 217.302C439.094 217.594 439.503 218.003 439.844 218.531C440.184 219.059 440.462 219.677 440.677 220.385C440.892 221.087 441.056 221.844 441.167 222.656V222.917C441.056 223.681 440.892 224.403 440.677 225.083C440.462 225.757 440.184 226.354 439.844 226.875C439.503 227.396 439.09 227.806 438.604 228.104C438.125 228.396 437.563 228.542 436.917 228.542C436.201 228.542 435.569 228.399 435.021 228.115C434.479 227.83 434.024 227.431 433.656 226.917C433.295 226.403 433.021 225.799 432.833 225.104C432.646 224.41 432.552 223.653 432.552 222.833ZM436.063 222.615V222.833C436.063 223.257 436.09 223.649 436.146 224.01C436.201 224.372 436.295 224.691 436.427 224.969C436.566 225.24 436.747 225.451 436.969 225.604C437.198 225.757 437.479 225.833 437.813 225.833C438.264 225.833 438.635 225.726 438.927 225.51C439.226 225.295 439.444 224.99 439.583 224.594C439.729 224.198 439.792 223.733 439.771 223.198V222.375C439.785 221.917 439.753 221.514 439.677 221.167C439.601 220.812 439.479 220.517 439.313 220.281C439.153 220.045 438.948 219.868 438.698 219.75C438.455 219.625 438.167 219.562 437.833 219.562C437.507 219.562 437.229 219.639 437 219.792C436.778 219.944 436.597 220.16 436.458 220.437C436.319 220.708 436.219 221.031 436.156 221.406C436.094 221.774 436.063 222.177 436.063 222.615ZM450.448 228.542C449.531 228.542 448.712 228.399 447.99 228.115C447.267 227.823 446.656 227.424 446.156 226.917C445.663 226.41 445.285 225.826 445.021 225.167C444.764 224.507 444.635 223.809 444.635 223.073V222.677C444.635 221.851 444.75 221.087 444.979 220.385C445.208 219.677 445.549 219.059 446 218.531C446.451 218.003 447.017 217.594 447.698 217.302C448.378 217.003 449.17 216.854 450.073 216.854C450.872 216.854 451.587 216.983 452.219 217.24C452.851 217.497 453.385 217.865 453.823 218.344C454.267 218.823 454.604 219.403 454.833 220.083C455.069 220.764 455.188 221.528 455.188 222.375V223.802H445.979V221.604H451.76V221.333C451.767 220.958 451.701 220.639 451.563 220.375C451.431 220.111 451.236 219.91 450.979 219.771C450.722 219.632 450.41 219.562 450.042 219.562C449.66 219.562 449.344 219.646 449.094 219.812C448.851 219.979 448.66 220.208 448.521 220.5C448.389 220.785 448.295 221.115 448.24 221.49C448.184 221.865 448.156 222.26 448.156 222.677V223.073C448.156 223.49 448.212 223.868 448.323 224.208C448.441 224.549 448.608 224.84 448.823 225.083C449.045 225.319 449.309 225.503 449.615 225.635C449.927 225.767 450.281 225.833 450.677 225.833C451.156 225.833 451.628 225.743 452.094 225.562C452.559 225.382 452.958 225.083 453.292 224.667L454.885 226.562C454.656 226.889 454.33 227.205 453.906 227.51C453.49 227.816 452.99 228.066 452.406 228.26C451.823 228.448 451.17 228.542 450.448 228.542ZM462.813 223.573V213.167H466.458V223.573C466.458 224.587 466.226 225.465 465.76 226.208C465.302 226.951 464.677 227.528 463.885 227.937C463.101 228.34 462.219 228.542 461.24 228.542C460.226 228.542 459.323 228.372 458.531 228.031C457.747 227.691 457.128 227.167 456.677 226.458C456.233 225.75 456.01 224.847 456.01 223.75H459.677C459.677 224.264 459.736 224.667 459.854 224.958C459.972 225.243 460.146 225.444 460.375 225.562C460.611 225.674 460.899 225.729 461.24 225.729C461.573 225.729 461.854 225.646 462.083 225.479C462.319 225.306 462.5 225.059 462.625 224.74C462.75 224.413 462.813 224.024 462.813 223.573ZM476.594 224.302C476.594 224.066 476.559 223.854 476.49 223.667C476.42 223.472 476.292 223.292 476.104 223.125C475.917 222.958 475.646 222.792 475.292 222.625C474.944 222.451 474.486 222.271 473.917 222.083C473.25 221.861 472.608 221.611 471.99 221.333C471.372 221.049 470.819 220.719 470.333 220.344C469.847 219.962 469.462 219.517 469.177 219.01C468.892 218.497 468.75 217.899 468.75 217.219C468.75 216.566 468.896 215.979 469.188 215.458C469.479 214.931 469.885 214.483 470.406 214.115C470.934 213.74 471.552 213.455 472.26 213.26C472.969 213.059 473.743 212.958 474.583 212.958C475.694 212.958 476.674 213.153 477.521 213.542C478.375 213.924 479.042 214.469 479.521 215.177C480.007 215.878 480.25 216.708 480.25 217.667H476.615C476.615 217.285 476.535 216.948 476.375 216.656C476.222 216.365 475.99 216.135 475.677 215.969C475.365 215.802 474.972 215.719 474.5 215.719C474.042 215.719 473.656 215.788 473.344 215.927C473.031 216.066 472.795 216.253 472.635 216.49C472.476 216.719 472.396 216.972 472.396 217.25C472.396 217.479 472.458 217.687 472.583 217.875C472.715 218.056 472.899 218.226 473.135 218.385C473.378 218.545 473.67 218.698 474.01 218.844C474.358 218.99 474.747 219.132 475.177 219.271C475.983 219.528 476.698 219.816 477.323 220.135C477.955 220.448 478.486 220.806 478.917 221.208C479.354 221.604 479.684 222.056 479.906 222.562C480.135 223.069 480.25 223.642 480.25 224.281C480.25 224.962 480.118 225.566 479.854 226.094C479.59 226.622 479.212 227.069 478.719 227.437C478.226 227.799 477.635 228.073 476.948 228.26C476.26 228.448 475.493 228.542 474.646 228.542C473.868 228.542 473.101 228.444 472.344 228.25C471.594 228.049 470.913 227.743 470.302 227.333C469.691 226.917 469.201 226.385 468.833 225.74C468.472 225.087 468.292 224.312 468.292 223.417H471.958C471.958 223.861 472.017 224.236 472.135 224.542C472.253 224.847 472.427 225.094 472.656 225.281C472.885 225.462 473.167 225.594 473.5 225.677C473.833 225.753 474.215 225.792 474.646 225.792C475.111 225.792 475.486 225.726 475.771 225.594C476.056 225.455 476.264 225.274 476.396 225.052C476.528 224.823 476.594 224.573 476.594 224.302Z" fill="white"/>
<rect x="571" y="196.333" width="208" height="49.3333" rx="4.66667" fill="#888888" stroke="#888888" stroke-width="4"/>
<path d="M635.75 225.521V228.333H627.667V225.521H635.75ZM628.969 213.167V228.333H625.313V213.167H628.969ZM634.708 219.187V221.906H627.667V219.187H634.708ZM635.781 213.167V215.99H627.667V213.167H635.781ZM640.063 217.062L641.646 220.167L643.281 217.062H646.927L643.969 222.552L647.083 228.333H643.406L641.646 225L639.896 228.333H636.219L639.333 222.552L636.385 217.062H640.063ZM651.625 219.229V232.667H648.115V217.062H651.385L651.625 219.229ZM658.542 222.562V222.781C658.542 223.601 658.448 224.361 658.26 225.062C658.073 225.764 657.795 226.375 657.427 226.896C657.059 227.417 656.601 227.823 656.052 228.115C655.51 228.399 654.882 228.542 654.167 228.542C653.493 228.542 652.913 228.392 652.427 228.094C651.941 227.795 651.535 227.382 651.208 226.854C650.882 226.326 650.618 225.722 650.417 225.042C650.215 224.361 650.056 223.642 649.938 222.885V222.604C650.056 221.792 650.215 221.038 650.417 220.344C650.618 219.642 650.882 219.031 651.208 218.51C651.535 217.99 651.938 217.583 652.417 217.292C652.903 217 653.483 216.854 654.156 216.854C654.872 216.854 655.5 216.99 656.042 217.26C656.59 217.531 657.049 217.92 657.417 218.427C657.792 218.927 658.073 219.528 658.26 220.229C658.448 220.931 658.542 221.708 658.542 222.562ZM655.031 222.781V222.562C655.031 222.125 655 221.726 654.938 221.365C654.875 220.997 654.774 220.677 654.635 220.406C654.503 220.135 654.326 219.927 654.104 219.781C653.882 219.635 653.608 219.562 653.281 219.562C652.906 219.562 652.59 219.622 652.333 219.74C652.083 219.851 651.882 220.024 651.729 220.26C651.583 220.49 651.479 220.778 651.417 221.125C651.361 221.465 651.337 221.865 651.344 222.323V223.177C651.33 223.705 651.382 224.17 651.5 224.573C651.618 224.969 651.823 225.278 652.115 225.5C652.406 225.722 652.802 225.833 653.302 225.833C653.635 225.833 653.913 225.757 654.135 225.604C654.358 225.444 654.535 225.226 654.667 224.948C654.799 224.663 654.892 224.337 654.948 223.969C655.003 223.601 655.031 223.205 655.031 222.781ZM663.646 219.854V228.333H660.135V217.062H663.417L663.646 219.854ZM666.979 216.979L666.917 220.24C666.778 220.226 666.59 220.208 666.354 220.187C666.118 220.167 665.92 220.156 665.76 220.156C665.351 220.156 664.997 220.205 664.698 220.302C664.406 220.392 664.163 220.531 663.969 220.719C663.781 220.899 663.642 221.128 663.552 221.406C663.469 221.684 663.431 222.007 663.438 222.375L662.802 221.958C662.802 221.201 662.875 220.514 663.021 219.896C663.174 219.271 663.389 218.733 663.667 218.281C663.944 217.823 664.281 217.472 664.677 217.229C665.073 216.979 665.517 216.854 666.01 216.854C666.184 216.854 666.354 216.865 666.521 216.885C666.694 216.906 666.847 216.937 666.979 216.979ZM673.438 228.542C672.521 228.542 671.701 228.399 670.979 228.115C670.257 227.823 669.646 227.424 669.146 226.917C668.653 226.41 668.274 225.826 668.01 225.167C667.753 224.507 667.625 223.809 667.625 223.073V222.677C667.625 221.851 667.74 221.087 667.969 220.385C668.198 219.677 668.538 219.059 668.99 218.531C669.441 218.003 670.007 217.594 670.688 217.302C671.368 217.003 672.16 216.854 673.063 216.854C673.861 216.854 674.576 216.983 675.208 217.24C675.84 217.497 676.375 217.865 676.813 218.344C677.257 218.823 677.594 219.403 677.823 220.083C678.059 220.764 678.177 221.528 678.177 222.375V223.802H668.969V221.604H674.75V221.333C674.757 220.958 674.691 220.639 674.552 220.375C674.42 220.111 674.226 219.91 673.969 219.771C673.712 219.632 673.399 219.562 673.031 219.562C672.649 219.562 672.333 219.646 672.083 219.812C671.84 219.979 671.649 220.208 671.51 220.5C671.378 220.785 671.285 221.115 671.229 221.49C671.174 221.865 671.146 222.26 671.146 222.677V223.073C671.146 223.49 671.201 223.868 671.313 224.208C671.431 224.549 671.597 224.84 671.813 225.083C672.035 225.319 672.299 225.503 672.604 225.635C672.917 225.767 673.271 225.833 673.667 225.833C674.146 225.833 674.618 225.743 675.083 225.562C675.549 225.382 675.948 225.083 676.281 224.667L677.875 226.562C677.646 226.889 677.319 227.205 676.896 227.51C676.479 227.816 675.979 228.066 675.396 228.26C674.813 228.448 674.16 228.542 673.438 228.542ZM685.51 225.167C685.51 224.972 685.444 224.806 685.313 224.667C685.188 224.521 684.965 224.389 684.646 224.271C684.326 224.146 683.878 224.021 683.302 223.896C682.753 223.778 682.236 223.622 681.75 223.427C681.271 223.233 680.851 222.997 680.49 222.719C680.128 222.441 679.844 222.111 679.635 221.729C679.434 221.347 679.333 220.91 679.333 220.417C679.333 219.937 679.434 219.486 679.635 219.062C679.844 218.632 680.146 218.253 680.542 217.927C680.944 217.594 681.434 217.333 682.01 217.146C682.587 216.951 683.243 216.854 683.979 216.854C684.993 216.854 685.868 217.01 686.604 217.323C687.34 217.628 687.906 218.059 688.302 218.615C688.705 219.163 688.906 219.799 688.906 220.521H685.396C685.396 220.236 685.347 219.993 685.25 219.792C685.16 219.59 685.01 219.437 684.802 219.333C684.594 219.222 684.316 219.167 683.969 219.167C683.726 219.167 683.503 219.212 683.302 219.302C683.108 219.392 682.951 219.517 682.833 219.677C682.715 219.837 682.656 220.024 682.656 220.24C682.656 220.392 682.691 220.531 682.76 220.656C682.837 220.774 682.951 220.885 683.104 220.99C683.257 221.087 683.451 221.177 683.688 221.26C683.924 221.337 684.208 221.406 684.542 221.469C685.299 221.608 686.007 221.806 686.667 222.062C687.326 222.319 687.861 222.684 688.271 223.156C688.688 223.628 688.896 224.264 688.896 225.062C688.896 225.562 688.781 226.024 688.552 226.448C688.323 226.865 687.993 227.233 687.563 227.552C687.132 227.865 686.615 228.108 686.01 228.281C685.406 228.455 684.726 228.542 683.969 228.542C682.892 228.542 681.983 228.351 681.24 227.969C680.497 227.58 679.934 227.094 679.552 226.51C679.177 225.92 678.99 225.323 678.99 224.719H682.26C682.274 225.066 682.358 225.351 682.51 225.573C682.67 225.795 682.882 225.958 683.146 226.062C683.41 226.167 683.715 226.219 684.063 226.219C684.382 226.219 684.646 226.174 684.854 226.083C685.069 225.993 685.233 225.872 685.344 225.719C685.455 225.559 685.51 225.375 685.51 225.167ZM696.448 225.167C696.448 224.972 696.382 224.806 696.25 224.667C696.125 224.521 695.903 224.389 695.583 224.271C695.264 224.146 694.816 224.021 694.24 223.896C693.691 223.778 693.174 223.622 692.688 223.427C692.208 223.233 691.788 222.997 691.427 222.719C691.066 222.441 690.781 222.111 690.573 221.729C690.372 221.347 690.271 220.91 690.271 220.417C690.271 219.937 690.372 219.486 690.573 219.062C690.781 218.632 691.083 218.253 691.479 217.927C691.882 217.594 692.372 217.333 692.948 217.146C693.524 216.951 694.181 216.854 694.917 216.854C695.931 216.854 696.806 217.01 697.542 217.323C698.278 217.628 698.844 218.059 699.24 218.615C699.642 219.163 699.844 219.799 699.844 220.521H696.333C696.333 220.236 696.285 219.993 696.188 219.792C696.097 219.59 695.948 219.437 695.74 219.333C695.531 219.222 695.253 219.167 694.906 219.167C694.663 219.167 694.441 219.212 694.24 219.302C694.045 219.392 693.889 219.517 693.771 219.677C693.653 219.837 693.594 220.024 693.594 220.24C693.594 220.392 693.628 220.531 693.698 220.656C693.774 220.774 693.889 220.885 694.042 220.99C694.194 221.087 694.389 221.177 694.625 221.26C694.861 221.337 695.146 221.406 695.479 221.469C696.236 221.608 696.944 221.806 697.604 222.062C698.264 222.319 698.799 222.684 699.208 223.156C699.625 223.628 699.833 224.264 699.833 225.062C699.833 225.562 699.719 226.024 699.49 226.448C699.26 226.865 698.931 227.233 698.5 227.552C698.069 227.865 697.552 228.108 696.948 228.281C696.344 228.455 695.663 228.542 694.906 228.542C693.83 228.542 692.92 228.351 692.177 227.969C691.434 227.58 690.872 227.094 690.49 226.51C690.115 225.92 689.927 225.323 689.927 224.719H693.198C693.212 225.066 693.295 225.351 693.448 225.573C693.608 225.795 693.819 225.958 694.083 226.062C694.347 226.167 694.653 226.219 695 226.219C695.319 226.219 695.583 226.174 695.792 226.083C696.007 225.993 696.17 225.872 696.281 225.719C696.392 225.559 696.448 225.375 696.448 225.167ZM707.677 223.573V213.167H711.323V223.573C711.323 224.587 711.09 225.465 710.625 226.208C710.167 226.951 709.542 227.528 708.75 227.937C707.965 228.34 707.083 228.542 706.104 228.542C705.09 228.542 704.188 228.372 703.396 228.031C702.611 227.691 701.993 227.167 701.542 226.458C701.097 225.75 700.875 224.847 700.875 223.75H704.542C704.542 224.264 704.601 224.667 704.719 224.958C704.837 225.243 705.01 225.444 705.24 225.562C705.476 225.674 705.764 225.729 706.104 225.729C706.438 225.729 706.719 225.646 706.948 225.479C707.184 225.306 707.365 225.059 707.49 224.74C707.615 224.413 707.677 224.024 707.677 223.573ZM721.458 224.302C721.458 224.066 721.424 223.854 721.354 223.667C721.285 223.472 721.156 223.292 720.969 223.125C720.781 222.958 720.51 222.792 720.156 222.625C719.809 222.451 719.351 222.271 718.781 222.083C718.115 221.861 717.472 221.611 716.854 221.333C716.236 221.049 715.684 220.719 715.198 220.344C714.712 219.962 714.326 219.517 714.042 219.01C713.757 218.497 713.615 217.899 713.615 217.219C713.615 216.566 713.76 215.979 714.052 215.458C714.344 214.931 714.75 214.483 715.271 214.115C715.799 213.74 716.417 213.455 717.125 213.26C717.833 213.059 718.608 212.958 719.448 212.958C720.559 212.958 721.538 213.153 722.385 213.542C723.24 213.924 723.906 214.469 724.385 215.177C724.872 215.878 725.115 216.708 725.115 217.667H721.479C721.479 217.285 721.399 216.948 721.24 216.656C721.087 216.365 720.854 216.135 720.542 215.969C720.229 215.802 719.837 215.719 719.365 215.719C718.906 215.719 718.521 215.788 718.208 215.927C717.896 216.066 717.66 216.253 717.5 216.49C717.34 216.719 717.26 216.972 717.26 217.25C717.26 217.479 717.323 217.687 717.448 217.875C717.58 218.056 717.764 218.226 718 218.385C718.243 218.545 718.535 218.698 718.875 218.844C719.222 218.99 719.611 219.132 720.042 219.271C720.847 219.528 721.563 219.816 722.188 220.135C722.819 220.448 723.351 220.806 723.781 221.208C724.219 221.604 724.549 222.056 724.771 222.562C725 223.069 725.115 223.642 725.115 224.281C725.115 224.962 724.983 225.566 724.719 226.094C724.455 226.622 724.076 227.069 723.583 227.437C723.09 227.799 722.5 228.073 721.813 228.26C721.125 228.448 720.358 228.542 719.51 228.542C718.733 228.542 717.965 228.444 717.208 228.25C716.458 228.049 715.778 227.743 715.167 227.333C714.556 226.917 714.066 226.385 713.698 225.74C713.337 225.087 713.156 224.312 713.156 223.417H716.823C716.823 223.861 716.882 224.236 717 224.542C717.118 224.847 717.292 225.094 717.521 225.281C717.75 225.462 718.031 225.594 718.365 225.677C718.698 225.753 719.08 225.792 719.51 225.792C719.976 225.792 720.351 225.726 720.635 225.594C720.92 225.455 721.128 225.274 721.26 225.052C721.392 224.823 721.458 224.573 721.458 224.302Z" fill="white"/>
<rect x="803" y="196.333" width="208" height="49.3333" rx="4.66667" fill="#888888" stroke="#888888" stroke-width="4"/>
<path d="M862.656 213.167H865.635L869.021 223.719L872.406 213.167H875.385L870.229 228.333H867.813L862.656 213.167ZM860.844 213.167H863.927L864.5 224.792V228.333H860.844V213.167ZM874.115 213.167H877.208V228.333H873.542V224.792L874.115 213.167ZM878.948 222.812V222.594C878.948 221.767 879.066 221.007 879.302 220.312C879.538 219.611 879.885 219.003 880.344 218.49C880.802 217.976 881.368 217.576 882.042 217.292C882.715 217 883.493 216.854 884.375 216.854C885.264 216.854 886.045 217 886.719 217.292C887.399 217.576 887.969 217.976 888.427 218.49C888.885 219.003 889.233 219.611 889.469 220.312C889.705 221.007 889.823 221.767 889.823 222.594V222.812C889.823 223.632 889.705 224.392 889.469 225.094C889.233 225.788 888.885 226.396 888.427 226.917C887.969 227.431 887.403 227.83 886.729 228.115C886.056 228.399 885.278 228.542 884.396 228.542C883.514 228.542 882.733 228.399 882.052 228.115C881.372 227.83 880.802 227.431 880.344 226.917C879.885 226.396 879.538 225.788 879.302 225.094C879.066 224.392 878.948 223.632 878.948 222.812ZM882.458 222.594V222.812C882.458 223.236 882.49 223.632 882.552 224C882.615 224.368 882.719 224.691 882.865 224.969C883.01 225.24 883.208 225.451 883.458 225.604C883.708 225.757 884.021 225.833 884.396 225.833C884.764 225.833 885.069 225.757 885.313 225.604C885.563 225.451 885.76 225.24 885.906 224.969C886.052 224.691 886.156 224.368 886.219 224C886.281 223.632 886.313 223.236 886.313 222.812V222.594C886.313 222.184 886.281 221.799 886.219 221.437C886.156 221.069 886.052 220.747 885.906 220.469C885.76 220.184 885.563 219.962 885.313 219.802C885.063 219.642 884.75 219.562 884.375 219.562C884.007 219.562 883.698 219.642 883.448 219.802C883.205 219.962 883.01 220.184 882.865 220.469C882.719 220.747 882.615 221.069 882.552 221.437C882.49 221.799 882.458 222.184 882.458 222.594ZM894.833 219.469V228.333H891.323V217.062H894.615L894.833 219.469ZM894.417 222.312L893.594 222.333C893.594 221.472 893.698 220.705 893.906 220.031C894.115 219.351 894.41 218.774 894.792 218.302C895.174 217.83 895.628 217.472 896.156 217.229C896.691 216.979 897.285 216.854 897.938 216.854C898.458 216.854 898.934 216.931 899.365 217.083C899.802 217.236 900.177 217.483 900.49 217.823C900.809 218.163 901.052 218.615 901.219 219.177C901.392 219.733 901.479 220.42 901.479 221.24V228.333H897.948V221.229C897.948 220.778 897.885 220.434 897.76 220.198C897.635 219.955 897.455 219.788 897.219 219.698C896.983 219.608 896.694 219.562 896.354 219.562C895.993 219.562 895.688 219.632 895.438 219.771C895.188 219.91 894.986 220.104 894.833 220.354C894.688 220.597 894.58 220.885 894.51 221.219C894.448 221.552 894.417 221.917 894.417 222.312ZM910.51 217.062H913.698V227.896C913.698 228.937 913.458 229.819 912.979 230.542C912.5 231.271 911.83 231.823 910.969 232.198C910.115 232.58 909.115 232.771 907.969 232.771C907.462 232.771 906.944 232.705 906.417 232.573C905.889 232.448 905.396 232.26 904.938 232.01C904.479 231.76 904.094 231.451 903.781 231.083L905.25 229.021C905.535 229.34 905.892 229.611 906.323 229.833C906.753 230.062 907.26 230.177 907.844 230.177C908.351 230.177 908.774 230.087 909.115 229.906C909.462 229.726 909.726 229.462 909.906 229.115C910.087 228.774 910.177 228.361 910.177 227.875V219.729L910.51 217.062ZM903.021 222.833V222.615C903.021 221.76 903.125 220.983 903.333 220.281C903.549 219.573 903.854 218.965 904.25 218.458C904.653 217.944 905.139 217.549 905.708 217.271C906.278 216.993 906.92 216.854 907.635 216.854C908.406 216.854 909.038 217.003 909.531 217.302C910.031 217.594 910.431 218.003 910.729 218.531C911.035 219.059 911.271 219.677 911.438 220.385C911.611 221.087 911.757 221.844 911.875 222.656V222.917C911.757 223.681 911.594 224.403 911.385 225.083C911.184 225.757 910.92 226.354 910.594 226.875C910.267 227.396 909.858 227.806 909.365 228.104C908.878 228.396 908.295 228.542 907.615 228.542C906.906 228.542 906.267 228.399 905.698 228.115C905.135 227.83 904.653 227.431 904.25 226.917C903.854 226.403 903.549 225.799 903.333 225.104C903.125 224.41 903.021 223.653 903.021 222.833ZM906.531 222.615V222.833C906.531 223.257 906.569 223.649 906.646 224.01C906.729 224.372 906.854 224.691 907.021 224.969C907.188 225.24 907.392 225.451 907.635 225.604C907.885 225.757 908.177 225.833 908.51 225.833C909.017 225.833 909.427 225.726 909.74 225.51C910.052 225.295 910.278 224.99 910.417 224.594C910.556 224.198 910.615 223.733 910.594 223.198V222.375C910.608 221.917 910.576 221.514 910.5 221.167C910.424 220.812 910.302 220.517 910.135 220.281C909.976 220.045 909.76 219.868 909.49 219.75C909.226 219.625 908.906 219.562 908.531 219.562C908.205 219.562 907.917 219.639 907.667 219.792C907.417 219.944 907.208 220.16 907.042 220.437C906.875 220.708 906.747 221.031 906.656 221.406C906.573 221.774 906.531 222.177 906.531 222.615ZM915.281 222.812V222.594C915.281 221.767 915.399 221.007 915.635 220.312C915.872 219.611 916.219 219.003 916.677 218.49C917.135 217.976 917.701 217.576 918.375 217.292C919.049 217 919.826 216.854 920.708 216.854C921.597 216.854 922.378 217 923.052 217.292C923.733 217.576 924.302 217.976 924.76 218.49C925.219 219.003 925.566 219.611 925.802 220.312C926.038 221.007 926.156 221.767 926.156 222.594V222.812C926.156 223.632 926.038 224.392 925.802 225.094C925.566 225.788 925.219 226.396 924.76 226.917C924.302 227.431 923.736 227.83 923.063 228.115C922.389 228.399 921.611 228.542 920.729 228.542C919.847 228.542 919.066 228.399 918.385 228.115C917.705 227.83 917.135 227.431 916.677 226.917C916.219 226.396 915.872 225.788 915.635 225.094C915.399 224.392 915.281 223.632 915.281 222.812ZM918.792 222.594V222.812C918.792 223.236 918.823 223.632 918.885 224C918.948 224.368 919.052 224.691 919.198 224.969C919.344 225.24 919.542 225.451 919.792 225.604C920.042 225.757 920.354 225.833 920.729 225.833C921.097 225.833 921.403 225.757 921.646 225.604C921.896 225.451 922.094 225.24 922.24 224.969C922.385 224.691 922.49 224.368 922.552 224C922.615 223.632 922.646 223.236 922.646 222.812V222.594C922.646 222.184 922.615 221.799 922.552 221.437C922.49 221.069 922.385 220.747 922.24 220.469C922.094 220.184 921.896 219.962 921.646 219.802C921.396 219.642 921.083 219.562 920.708 219.562C920.34 219.562 920.031 219.642 919.781 219.802C919.538 219.962 919.344 220.184 919.198 220.469C919.052 220.747 918.948 221.069 918.885 221.437C918.823 221.799 918.792 222.184 918.792 222.594ZM932.813 228.333H929.448L929.469 225.521H932.813C933.507 225.521 934.094 225.354 934.573 225.021C935.059 224.687 935.427 224.191 935.677 223.531C935.934 222.865 936.063 222.045 936.063 221.073V220.417C936.063 219.687 935.99 219.049 935.844 218.5C935.705 217.944 935.497 217.483 935.219 217.115C934.941 216.74 934.594 216.458 934.177 216.271C933.767 216.083 933.295 215.99 932.76 215.99H929.385V213.167H932.76C933.788 213.167 934.729 213.344 935.583 213.698C936.444 214.045 937.188 214.545 937.813 215.198C938.444 215.844 938.931 216.611 939.271 217.5C939.618 218.382 939.792 219.361 939.792 220.437V221.073C939.792 222.142 939.618 223.122 939.271 224.01C938.931 224.899 938.448 225.667 937.823 226.312C937.198 226.958 936.458 227.458 935.604 227.812C934.757 228.16 933.826 228.333 932.813 228.333ZM931.542 213.167V228.333H927.885V213.167H931.542ZM947.885 221.885H943.979L943.958 219.49H947.125C947.694 219.49 948.149 219.427 948.49 219.302C948.83 219.17 949.076 218.979 949.229 218.729C949.389 218.479 949.469 218.167 949.469 217.792C949.469 217.361 949.389 217.014 949.229 216.75C949.069 216.486 948.816 216.295 948.469 216.177C948.128 216.052 947.688 215.99 947.146 215.99H945.354V228.333H941.698V213.167H947.146C948.083 213.167 948.92 213.253 949.656 213.427C950.392 213.594 951.017 213.851 951.531 214.198C952.052 214.545 952.448 214.983 952.719 215.51C952.99 216.031 953.125 216.646 953.125 217.354C953.125 217.972 952.993 218.552 952.729 219.094C952.465 219.635 952.024 220.076 951.406 220.417C950.795 220.75 949.958 220.924 948.896 220.937L947.885 221.885ZM947.74 228.333H943.094L944.344 225.521H947.74C948.24 225.521 948.639 225.444 948.938 225.292C949.243 225.132 949.462 224.924 949.594 224.667C949.733 224.403 949.802 224.111 949.802 223.792C949.802 223.403 949.736 223.066 949.604 222.781C949.479 222.497 949.278 222.278 949 222.125C948.722 221.965 948.351 221.885 947.885 221.885H944.813L944.833 219.49H948.51L949.365 220.448C950.378 220.406 951.181 220.549 951.771 220.875C952.368 221.201 952.795 221.632 953.052 222.167C953.309 222.701 953.438 223.26 953.438 223.844C953.438 224.837 953.222 225.667 952.792 226.333C952.368 227 951.733 227.5 950.885 227.833C950.038 228.167 948.99 228.333 947.74 228.333Z" fill="white"/>
<rect x="1035" y="196.333" width="208" height="49.3333" rx="4.66667" fill="#888888" stroke="#888888" stroke-width="4"/>
<path d="M1111.04 228.333H1107.68L1107.7 225.521H1111.04C1111.74 225.521 1112.32 225.354 1112.8 225.021C1113.29 224.687 1113.66 224.191 1113.91 223.531C1114.16 222.865 1114.29 222.045 1114.29 221.073V220.417C1114.29 219.687 1114.22 219.049 1114.07 218.5C1113.93 217.944 1113.73 217.483 1113.45 217.115C1113.17 216.74 1112.82 216.458 1112.41 216.271C1112 216.083 1111.52 215.99 1110.99 215.99H1107.61V213.167H1110.99C1112.02 213.167 1112.96 213.344 1113.81 213.698C1114.67 214.045 1115.42 214.545 1116.04 215.198C1116.67 215.844 1117.16 216.611 1117.5 217.5C1117.85 218.382 1118.02 219.361 1118.02 220.437V221.073C1118.02 222.142 1117.85 223.122 1117.5 224.01C1117.16 224.899 1116.68 225.667 1116.05 226.312C1115.43 226.958 1114.69 227.458 1113.83 227.812C1112.99 228.16 1112.06 228.333 1111.04 228.333ZM1109.77 213.167V228.333H1106.11V213.167H1109.77ZM1119.32 222.812V222.594C1119.32 221.767 1119.44 221.007 1119.68 220.312C1119.91 219.611 1120.26 219.003 1120.72 218.49C1121.18 217.976 1121.74 217.576 1122.42 217.292C1123.09 217 1123.87 216.854 1124.75 216.854C1125.64 216.854 1126.42 217 1127.09 217.292C1127.77 217.576 1128.34 217.976 1128.8 218.49C1129.26 219.003 1129.61 219.611 1129.84 220.312C1130.08 221.007 1130.2 221.767 1130.2 222.594V222.812C1130.2 223.632 1130.08 224.392 1129.84 225.094C1129.61 225.788 1129.26 226.396 1128.8 226.917C1128.34 227.431 1127.78 227.83 1127.1 228.115C1126.43 228.399 1125.65 228.542 1124.77 228.542C1123.89 228.542 1123.11 228.399 1122.43 228.115C1121.75 227.83 1121.18 227.431 1120.72 226.917C1120.26 226.396 1119.91 225.788 1119.68 225.094C1119.44 224.392 1119.32 223.632 1119.32 222.812ZM1122.83 222.594V222.812C1122.83 223.236 1122.86 223.632 1122.93 224C1122.99 224.368 1123.09 224.691 1123.24 224.969C1123.39 225.24 1123.58 225.451 1123.83 225.604C1124.08 225.757 1124.4 225.833 1124.77 225.833C1125.14 225.833 1125.44 225.757 1125.69 225.604C1125.94 225.451 1126.14 225.24 1126.28 224.969C1126.43 224.691 1126.53 224.368 1126.59 224C1126.66 223.632 1126.69 223.236 1126.69 222.812V222.594C1126.69 222.184 1126.66 221.799 1126.59 221.437C1126.53 221.069 1126.43 220.747 1126.28 220.469C1126.14 220.184 1125.94 219.962 1125.69 219.802C1125.44 219.642 1125.12 219.562 1124.75 219.562C1124.38 219.562 1124.07 219.642 1123.82 219.802C1123.58 219.962 1123.39 220.184 1123.24 220.469C1123.09 220.747 1122.99 221.069 1122.93 221.437C1122.86 221.799 1122.83 222.184 1122.83 222.594ZM1136.52 225.833C1136.85 225.833 1137.12 225.774 1137.35 225.656C1137.59 225.531 1137.77 225.358 1137.89 225.135C1138.01 224.906 1138.07 224.632 1138.06 224.312H1141.36C1141.37 225.16 1141.16 225.903 1140.74 226.542C1140.32 227.174 1139.75 227.667 1139.03 228.021C1138.32 228.368 1137.51 228.542 1136.6 228.542C1135.72 228.542 1134.95 228.399 1134.29 228.115C1133.63 227.823 1133.08 227.42 1132.64 226.906C1132.2 226.385 1131.87 225.778 1131.65 225.083C1131.43 224.389 1131.32 223.635 1131.32 222.823V222.583C1131.32 221.771 1131.43 221.017 1131.65 220.323C1131.87 219.622 1132.2 219.014 1132.64 218.5C1133.08 217.979 1133.63 217.576 1134.28 217.292C1134.94 217 1135.71 216.854 1136.58 216.854C1137.52 216.854 1138.35 217.031 1139.06 217.385C1139.78 217.74 1140.35 218.253 1140.76 218.927C1141.17 219.601 1141.37 220.417 1141.36 221.375H1138.06C1138.07 221.035 1138.02 220.729 1137.91 220.458C1137.8 220.187 1137.62 219.972 1137.39 219.812C1137.16 219.646 1136.86 219.562 1136.5 219.562C1136.14 219.562 1135.85 219.642 1135.62 219.802C1135.4 219.962 1135.23 220.184 1135.11 220.469C1135 220.747 1134.93 221.066 1134.89 221.427C1134.85 221.788 1134.83 222.174 1134.83 222.583V222.823C1134.83 223.24 1134.85 223.632 1134.89 224C1134.93 224.361 1135.01 224.681 1135.12 224.958C1135.24 225.229 1135.41 225.444 1135.64 225.604C1135.86 225.757 1136.15 225.833 1136.52 225.833ZM1146.41 212.323V228.333H1142.9V212.323H1146.41ZM1153.61 217.062L1148.72 222.802L1146.16 225.365L1144.63 223.135L1146.76 220.354L1149.41 217.062H1153.61ZM1149.85 228.333L1146.84 223.198L1149.44 221.354L1153.88 228.333H1149.85ZM1159.78 228.542C1158.86 228.542 1158.05 228.399 1157.32 228.115C1156.6 227.823 1155.99 227.424 1155.49 226.917C1155 226.41 1154.62 225.826 1154.35 225.167C1154.1 224.507 1153.97 223.809 1153.97 223.073V222.677C1153.97 221.851 1154.08 221.087 1154.31 220.385C1154.54 219.677 1154.88 219.059 1155.33 218.531C1155.78 218.003 1156.35 217.594 1157.03 217.302C1157.71 217.003 1158.5 216.854 1159.41 216.854C1160.2 216.854 1160.92 216.983 1161.55 217.24C1162.18 217.497 1162.72 217.865 1163.16 218.344C1163.6 218.823 1163.94 219.403 1164.17 220.083C1164.4 220.764 1164.52 221.528 1164.52 222.375V223.802H1155.31V221.604H1161.09V221.333C1161.1 220.958 1161.03 220.639 1160.9 220.375C1160.76 220.111 1160.57 219.91 1160.31 219.771C1160.06 219.632 1159.74 219.562 1159.37 219.562C1158.99 219.562 1158.68 219.646 1158.43 219.812C1158.18 219.979 1157.99 220.208 1157.85 220.5C1157.72 220.785 1157.63 221.115 1157.57 221.49C1157.52 221.865 1157.49 222.26 1157.49 222.677V223.073C1157.49 223.49 1157.55 223.868 1157.66 224.208C1157.77 224.549 1157.94 224.84 1158.16 225.083C1158.38 225.319 1158.64 225.503 1158.95 225.635C1159.26 225.767 1159.61 225.833 1160.01 225.833C1160.49 225.833 1160.96 225.743 1161.43 225.562C1161.89 225.382 1162.29 225.083 1162.62 224.667L1164.22 226.562C1163.99 226.889 1163.66 227.205 1163.24 227.51C1162.82 227.816 1162.32 228.066 1161.74 228.26C1161.16 228.448 1160.5 228.542 1159.78 228.542ZM1169.49 219.854V228.333H1165.98V217.062H1169.26L1169.49 219.854ZM1172.82 216.979L1172.76 220.24C1172.62 220.226 1172.43 220.208 1172.2 220.187C1171.96 220.167 1171.76 220.156 1171.6 220.156C1171.19 220.156 1170.84 220.205 1170.54 220.302C1170.25 220.392 1170.01 220.531 1169.81 220.719C1169.62 220.899 1169.49 221.128 1169.4 221.406C1169.31 221.684 1169.27 222.007 1169.28 222.375L1168.65 221.958C1168.65 221.201 1168.72 220.514 1168.86 219.896C1169.02 219.271 1169.23 218.733 1169.51 218.281C1169.79 217.823 1170.12 217.472 1170.52 217.229C1170.92 216.979 1171.36 216.854 1171.85 216.854C1172.03 216.854 1172.2 216.865 1172.36 216.885C1172.54 216.906 1172.69 216.937 1172.82 216.979Z" fill="white"/>
</svg>
